# 3ds Max Wavefront OBJ Exporter v0.97b - (c)2007 guruware
# File Created: 24.06.2018 15:19:35

#
# object Box001
#

v  0.6250 -2.0232 12.2009
v  -3.6779 -2.0232 7.8980
v  -0.2271 -2.0232 4.4471
v  4.0759 -2.0232 8.7501
v  8.7501 -2.0232 4.0759
v  4.4471 -2.0232 -0.2271
v  7.8980 -2.0232 -3.6779
v  12.2009 -2.0232 0.6251
v  -7.8980 -2.0232 3.6779
v  -12.2009 -2.0232 -0.6251
v  -8.7501 -2.0232 -4.0759
v  -4.4471 -2.0232 0.2271
v  0.2271 -2.0232 -4.4471
v  -4.0759 -2.0232 -8.7501
v  -0.6251 -2.0232 -12.2009
v  3.6779 -2.0232 -7.8980
v  0.3980 37.1692 16.6480
v  8.5230 37.1692 8.5230
v  0.0000 42.9043 -0.0000
v  -8.1250 37.1692 8.1250
v  16.6480 37.1692 0.3980
v  8.1250 37.1692 -8.1250
v  -8.5230 37.1692 -8.5230
v  -16.6480 37.1692 -0.3980
v  -0.3980 37.1692 -16.6480
v  0.3980 17.9532 16.6480
v  8.5230 17.9532 8.5230
v  8.5230 27.9479 8.5230
v  0.3980 27.9479 16.6480
v  16.6480 17.9532 0.3980
v  16.6480 27.9479 0.3980
v  8.1250 17.9532 -8.1250
v  8.1250 27.9479 -8.1250
v  -0.3980 17.9532 -16.6480
v  -0.3980 27.9479 -16.6480
v  -8.5230 17.9532 -8.5230
v  -8.5230 27.9479 -8.5230
v  -16.6480 17.9532 -0.3980
v  -16.6480 27.9479 -0.3980
v  -8.1250 17.9532 8.1250
v  -8.1250 27.9479 8.1250
v  -5.8298 17.9532 7.6201
v  0.9029 17.9532 14.7289
v  -0.0000 17.9532 -0.0000
v  -0.5049 17.9532 1.9191
v  6.1468 17.9532 9.0279
v  1.9191 17.9532 -0.5049
v  9.0279 17.9532 6.6039
v  7.6201 17.9532 -6.2059
v  14.7289 17.9532 0.9029
v  -14.7289 17.9532 -0.9029
v  -7.6201 17.9532 6.2059
v  -9.0279 17.9532 -6.6039
v  -1.9191 17.9532 0.5049
v  -6.2278 17.9532 -9.0279
v  0.5049 17.9532 -1.9191
v  -0.9029 17.9532 -14.7289
v  5.7488 17.9532 -7.6201
v  -4.7281 13.5625 7.7825
v  0.7405 13.5625 13.2512
v  -0.3425 13.5625 3.3969
v  5.1261 13.5625 8.8655
v  3.3969 13.5625 -0.3425
v  8.8655 13.5625 5.1261
v  7.7825 13.5625 -4.7281
v  13.2511 13.5625 0.7405
v  -13.2511 13.5625 -0.7405
v  -7.7825 13.5625 4.7281
v  -8.8655 13.5625 -5.1261
v  -3.3969 13.5625 0.3425
v  -5.1261 13.5625 -8.8655
v  0.3425 13.5625 -3.3969
v  -0.7405 13.5625 -13.2511
v  4.7281 13.5625 -7.7825
v  -4.7281 8.3983 7.7825
v  0.7405 8.3983 13.2512
v  -0.3425 8.3983 3.3969
v  5.1261 8.3983 8.8655
v  3.3969 8.3983 -0.3425
v  8.8655 8.3983 5.1261
v  7.7825 8.3983 -4.7281
v  13.2511 8.3983 0.7405
v  -13.2511 8.3983 -0.7405
v  -7.7825 8.3983 4.7281
v  -8.8655 8.3983 -5.1261
v  -3.3969 8.3983 0.3425
v  -5.1261 8.3983 -8.8655
v  0.3425 8.3983 -3.3969
v  -0.7405 8.3983 -13.2511
v  4.7281 8.3983 -7.7825
v  -3.6779 5.5196 7.8980
v  0.6250 5.5196 12.2009
v  -0.2271 5.5196 4.4471
v  4.0759 5.5196 8.7501
v  2.8729 5.5196 -0.2271
v  7.1758 5.5196 4.0759
v  7.8980 5.5196 -3.6779
v  12.2009 5.5196 0.6251
v  -12.2009 5.5196 -0.6251
v  -7.8980 5.5196 3.6779
v  -8.7501 5.5196 -4.0759
v  -4.4471 5.5196 0.2271
v  -4.0759 5.5196 -8.7501
v  0.2271 5.5196 -4.4471
v  -0.6251 5.5196 -12.2009
v  3.6779 5.5196 -7.8980
v  -3.6779 2.6409 7.8980
v  0.6250 2.6409 12.2009
v  -0.2271 2.6409 4.4471
v  4.0759 2.6409 8.7501
v  2.9923 2.6409 -0.2271
v  7.2952 2.6409 4.0759
v  7.8980 2.6409 -3.6779
v  12.2009 2.6409 0.6251
v  -12.2009 2.6409 -0.6251
v  -7.8980 2.6409 3.6779
v  -8.7501 2.6409 -4.0759
v  -4.4471 2.6409 0.2271
v  -4.0759 2.6409 -8.7501
v  0.2271 2.6409 -4.4471
v  -0.6251 2.6409 -12.2009
v  3.6779 2.6409 -7.8980
# 122 vertices

vn -0.0000 -0.5774 0.8165
vn -0.8165 -0.5774 -0.0000
vn 0.0000 -0.5774 -0.8165
vn 0.8165 -0.5774 0.0000
vn 0.0461 -0.5620 0.8259
vn -0.7813 -0.6241 0.0128
vn 0.0000 -0.5774 0.8165
vn 0.8165 -0.5774 -0.0000
vn -0.0000 0.5774 0.8165
vn 0.6476 0.4015 0.6476
vn 0.0000 1.0000 -0.0000
vn -0.6812 0.2682 0.6812
vn 0.8165 0.5774 0.0000
vn 0.6812 0.2682 -0.6812
vn -0.6476 0.4015 -0.6476
vn -0.8165 0.5774 -0.0000
vn 0.0000 0.5774 -0.8165
vn 0.5000 -0.7071 0.5000
vn 0.7071 -0.0000 0.7071
vn -0.0000 -0.0000 1.0000
vn 1.0000 0.0000 -0.0000
vn 0.5000 -0.7071 -0.5000
vn 0.7071 -0.0000 -0.7071
vn 0.0000 -0.0000 -1.0000
vn -0.5000 -0.7071 -0.5000
vn -0.7071 -0.0000 -0.7071
vn -1.0000 0.0000 -0.0000
vn -0.5000 -0.7071 0.5000
vn -0.7071 -0.0000 0.7071
vn -0.4101 -0.9120 0.0014
vn 0.0173 -0.9324 0.3611
vn 0.0000 -1.0000 -0.0000
vn -0.0145 -0.9315 -0.3636
vn 0.4163 -0.9092 -0.0037
vn -0.3819 -0.9242 -0.0080
vn 0.0080 -0.9242 0.3819
vn -0.0080 -0.9242 -0.3819
vn 0.3819 -0.9242 0.0080
vn -0.9985 -0.0539 0.0103
vn -0.0129 -0.0719 0.9973
vn 0.0129 -0.0719 -0.9973
vn 0.9987 -0.0501 -0.0098
vn -0.9973 -0.0719 0.0129
vn 0.9973 -0.0719 -0.0129
vn -0.9972 -0.0742 -0.0108
vn 0.0108 -0.0742 0.9972
vn -0.0108 -0.0742 -0.9972
vn 0.9972 -0.0742 0.0108
vn -0.9994 0.0356 0.0008
vn 0.0489 -0.1122 0.9925
vn -0.9969 -0.0780 0.0141
vn -0.0141 -0.0780 0.9969
vn 0.0141 -0.0780 -0.9969
vn 0.9969 -0.0780 -0.0141
vn -0.9880 0.0256 -0.1521
vn -0.2168 -0.0649 0.9741
vn 0.1690 -0.0717 -0.9830
vn 0.9862 -0.0825 0.1436
vn -0.0000 0.0000 1.0000
vn 0.0000 0.0000 -1.0000
vn 1.0000 0.0000 0.0000
vn -0.9866 -0.0718 -0.1468
vn -0.1659 0.0052 0.9861
vn 0.1445 0.0000 -0.9895
vn 0.9895 0.0000 0.1445
vn -1.0000 0.0000 0.0000
vn 0.0000 0.0000 1.0000
# 67 vertex normals

vt 1.0000 0.0000 0.0000
vt 1.0000 0.5000 0.0000
vt 0.5000 0.5000 0.0000
vt 0.5000 0.0000 0.0000
vt 0.0000 0.5000 0.0000
vt 0.0000 0.0000 0.0000
vt 1.0000 1.0000 0.0000
vt 0.5000 1.0000 0.0000
vt 0.0000 1.0000 0.0000
# 9 texture coords

o Box001
g Box001
s 2
f 1/1/1 2/2/2 3/3/3 4/4/4 
f 5/4/5 6/3/6 7/5/3 8/6/4 
f 9/2/7 10/7/2 11/8/3 12/3/4 
f 13/3/7 14/8/2 15/9/3 16/5/8 
s 4
f 17/6/9 18/4/10 19/3/11 20/5/12 
f 18/4/10 21/1/13 22/2/14 19/3/11 
f 20/5/12 19/3/11 23/8/15 24/9/16 
f 19/3/11 22/2/14 25/7/17 23/8/15 
s 8
f 26/6/1 27/4/18 28/3/19 29/5/20 
f 27/4/18 30/1/4 31/2/21 28/3/19 
s 16
f 30/6/4 32/4/22 33/3/23 31/5/21 
f 32/4/22 34/1/3 35/2/24 33/3/23 
s 32
f 34/6/3 36/4/25 37/3/26 35/5/24 
f 36/4/25 38/1/2 39/2/27 37/3/26 
s 64
f 38/6/2 40/4/28 41/3/29 39/5/27 
f 40/4/28 26/1/1 29/2/20 41/3/29 
s off
f 26/1/1 40/2/28 42/2/30 43/1/31 
f 40/2/28 44/3/32 45/3/33 42/2/30 
f 44/3/32 27/4/18 46/4/34 45/3/33 
f 27/4/18 26/1/1 43/1/31 46/4/34 
f 27/4/18 44/3/32 47/3/35 48/4/36 
f 44/3/32 32/5/22 49/5/37 47/3/35 
f 32/5/22 30/6/4 50/6/38 49/5/37 
f 30/6/4 27/4/18 48/4/36 50/6/38 
f 40/2/28 38/7/2 51/7/35 52/2/36 
f 38/7/2 36/8/25 53/8/37 51/7/35 
f 36/8/25 44/3/32 54/3/38 53/8/37 
f 44/3/32 40/2/28 52/2/36 54/3/38 
f 44/3/32 36/8/25 55/8/30 56/3/31 
f 36/8/25 34/9/3 57/9/33 55/8/30 
f 34/9/3 32/5/22 58/5/34 57/9/33 
f 32/5/22 44/3/32 56/3/31 58/5/34 
f 43/1/31 42/2/30 59/2/39 60/1/40 
f 42/2/30 45/3/33 61/3/41 59/2/39 
f 45/3/33 46/4/34 62/4/42 61/3/41 
f 46/4/34 43/1/31 60/1/40 62/4/42 
f 48/4/36 47/3/35 63/3/43 64/4/40 
f 47/3/35 49/5/37 65/5/41 63/3/43 
f 49/5/37 50/6/38 66/6/44 65/5/41 
f 50/6/38 48/4/36 64/4/40 66/6/44 
f 52/2/36 51/7/35 67/7/43 68/2/40 
f 51/7/35 53/8/37 69/8/41 67/7/43 
f 53/8/37 54/3/38 70/3/44 69/8/41 
f 54/3/38 52/2/36 68/2/40 70/3/44 
f 56/3/31 55/8/30 71/8/39 72/3/40 
f 55/8/30 57/9/33 73/9/41 71/8/39 
f 57/9/33 58/5/34 74/5/42 73/9/41 
f 58/5/34 56/3/31 72/3/40 74/5/42 
f 60/1/40 59/2/39 75/2/45 76/1/46 
f 59/2/39 61/3/41 77/3/47 75/2/45 
f 61/3/41 62/4/42 78/4/48 77/3/47 
f 62/4/42 60/1/40 76/1/46 78/4/48 
f 64/4/40 63/3/43 79/3/49 80/4/50 
f 63/3/43 65/5/41 81/5/47 79/3/49 
f 65/5/41 66/6/44 82/6/48 81/5/47 
f 66/6/44 64/4/40 80/4/50 82/6/48 
f 68/2/40 67/7/43 83/7/45 84/2/46 
f 67/7/43 69/8/41 85/8/47 83/7/45 
f 69/8/41 70/3/44 86/3/48 85/8/47 
f 70/3/44 68/2/40 84/2/46 86/3/48 
f 72/3/40 71/8/39 87/8/45 88/3/46 
f 71/8/39 73/9/41 89/9/47 87/8/45 
f 73/9/41 74/5/42 90/5/48 89/9/47 
f 74/5/42 72/3/40 88/3/46 90/5/48 
f 76/1/46 75/2/45 91/2/51 92/1/52 
f 75/2/45 77/3/47 93/3/53 91/2/51 
f 77/3/47 78/4/48 94/4/54 93/3/53 
f 78/4/48 76/1/46 92/1/52 94/4/54 
f 80/4/50 79/3/49 95/3/55 96/4/56 
f 79/3/49 81/5/47 97/5/57 95/3/55 
f 81/5/47 82/6/48 98/6/58 97/5/57 
f 82/6/48 80/4/50 96/4/56 98/6/58 
f 84/2/46 83/7/45 99/7/51 100/2/52 
f 83/7/45 85/8/47 101/8/53 99/7/51 
f 85/8/47 86/3/48 102/3/54 101/8/53 
f 86/3/48 84/2/46 100/2/52 102/3/54 
f 88/3/46 87/8/45 103/8/51 104/3/52 
f 87/8/45 89/9/47 105/9/53 103/8/51 
f 89/9/47 90/5/48 106/5/54 105/9/53 
f 90/5/48 88/3/46 104/3/52 106/5/54 
f 92/1/52 91/2/51 107/2/27 108/1/59 
f 91/2/51 93/3/53 109/3/60 107/2/27 
f 93/3/53 94/4/54 110/4/61 109/3/60 
f 94/4/54 92/1/52 108/1/59 110/4/61 
f 96/4/56 95/3/55 111/3/62 112/4/63 
f 95/3/55 97/5/57 113/5/64 111/3/62 
f 97/5/57 98/6/58 114/6/65 113/5/64 
f 98/6/58 96/4/56 112/4/63 114/6/65 
f 100/2/52 99/7/51 115/7/66 116/2/67 
f 99/7/51 101/8/53 117/8/60 115/7/66 
f 101/8/53 102/3/54 118/3/61 117/8/60 
f 102/3/54 100/2/52 116/2/67 118/3/61 
f 104/3/52 103/8/51 119/8/27 120/3/67 
f 103/8/51 105/9/53 121/9/60 119/8/27 
f 105/9/53 106/5/54 122/5/21 121/9/60 
f 106/5/54 104/3/52 120/3/67 122/5/21 
f 108/1/59 107/2/27 2/2/2 1/1/1 
f 107/2/27 109/3/60 3/3/3 2/2/2 
f 109/3/60 110/4/61 4/4/4 3/3/3 
f 110/4/61 108/1/59 1/1/1 4/4/4 
f 112/4/63 111/3/62 6/3/6 5/4/5 
f 111/3/62 113/5/64 7/5/3 6/3/6 
f 113/5/64 114/6/65 8/6/4 7/5/3 
f 114/6/65 112/4/63 5/4/5 8/6/4 
f 116/2/67 115/7/66 10/7/2 9/2/7 
f 115/7/66 117/8/60 11/8/3 10/7/2 
f 117/8/60 118/3/61 12/3/4 11/8/3 
f 118/3/61 116/2/67 9/2/7 12/3/4 
f 120/3/67 119/8/27 14/8/2 13/3/7 
f 119/8/27 121/9/60 15/9/3 14/8/2 
f 121/9/60 122/5/21 16/5/8 15/9/3 
f 122/5/21 120/3/67 13/3/7 16/5/8 
s 8
f 28/3/19 18/8/10 17/9/9 29/5/20 
f 31/2/21 21/7/13 18/8/10 28/3/19 
s 16
f 33/3/23 22/8/14 21/9/13 31/5/21 
f 35/2/24 25/7/17 22/8/14 33/3/23 
s 32
f 37/3/26 23/8/15 25/9/17 35/5/24 
f 39/2/27 24/7/16 23/8/15 37/3/26 
s 64
f 41/3/29 20/8/12 24/9/16 39/5/27 
f 29/2/20 17/7/9 20/8/12 41/3/29 
# 120 polygons

