# 3ds Max Wavefront OBJ Exporter v0.97b - (c)2007 guruware
# File Created: 15.06.2018 14:33:07

mtllib tetraedro.mtl

#
# object Hedra001
#

v  4.3588 3.0821 -0.0000
v  0.0000 -3.0821 -4.3588
v  -4.3588 3.0821 -0.0000
v  -0.0000 -3.0821 4.3588
# 4 vertices

vn 0.0000 0.5774 -0.8165
vn 0.0000 0.5774 0.8165
vn 0.8165 -0.5774 0.0000
vn -0.8165 -0.5774 -0.0000
# 4 vertex normals

vt 0.5000 0.5000 0.0000
vt -0.5000 0.0000 0.5000
vt 0.5000 -0.5000 0.0000
vt -0.5000 -0.0000 -0.5000
vt -0.5000 -0.5000 -0.0000
vt 0.0000 0.5000 0.5000
vt 0.0000 0.5000 -0.5000
# 7 texture coords

o Hedra001
g Hedra001
usemtl wire_177148027
s off
f 1/1/1 2/2/1 3/3/1 
f 3/3/2 4/4/2 1/1/2 
f 4/5/3 2/3/3 1/6/3 
f 4/5/4 3/7/4 2/3/4 
# 4 faces

