# 3ds Max Wavefront OBJ Exporter v0.97b - (c)2007 guruware
# File Created: 24.06.2018 14:14:10

#
# object Box002
#

v  -2.2168 -0.3285 0.1614
v  -2.2168 -0.3285 -0.3329
v  -1.8332 -0.3285 -0.3329
v  -1.8332 -0.3285 0.1614
v  -1.8332 0.3434 0.1614
v  -1.8332 0.3434 -0.3329
v  -2.2168 0.3434 -0.3329
v  -2.2168 0.3434 0.1614
v  -2.2168 -0.1512 0.6558
v  -1.8332 -0.1512 0.6558
v  -1.9926 0.0074 0.7357
v  -2.4160 0.0074 0.7357
v  2.0538 -0.3726 -0.1312
v  2.0538 -0.3726 -0.2640
v  2.4271 0.0074 -0.2810
v  2.4271 0.0074 -0.1341
v  -1.8332 -0.1512 -0.8272
v  -2.2168 -0.1512 -0.8272
v  -2.4160 0.0074 -0.9035
v  -1.9926 0.0074 -0.9035
v  -2.5463 0.0074 0.1893
v  -2.5463 0.0074 -0.3571
v  -1.5564 -0.4715 -0.2518
v  -1.5564 -0.4715 0.0803
v  -1.6872 0.0074 -0.6345
v  -1.5564 -0.2187 -0.5838
v  -1.5564 0.4864 0.0803
v  -1.5564 0.4864 -0.2518
v  -1.8332 0.1661 0.6558
v  -1.6872 0.0074 0.4667
v  -1.5564 0.2336 0.4124
v  -1.2796 -0.4715 -0.2642
v  -1.2796 -0.4715 0.0927
v  -1.3817 0.0074 -0.6757
v  -1.2796 -0.2187 -0.6211
v  -1.2796 0.4864 0.0927
v  -1.2796 0.4864 -0.2642
v  -1.3817 0.0074 0.5079
v  -1.2796 0.2336 0.4497
v  -1.0028 -0.4715 -0.3224
v  -1.0028 -0.4715 0.1509
v  -1.0763 0.0074 -0.8686
v  -1.0028 -0.2187 -0.7956
v  -1.0028 0.4864 0.1509
v  -1.0028 0.4864 -0.3224
v  -1.0763 0.0074 0.7008
v  -1.0028 0.2336 0.6242
v  -0.7260 -0.4715 -0.3851
v  -0.7260 -0.4715 0.2137
v  -0.7708 0.0074 -1.0767
v  -0.7260 -0.2187 -0.9839
v  -0.7260 0.4864 0.2137
v  -0.7260 0.4864 -0.3851
v  -0.7708 0.0074 0.9089
v  -0.7260 0.2336 0.8124
v  -0.1724 -0.4715 -0.3851
v  -0.1724 -0.4715 0.2137
v  -0.1599 0.0074 -1.0767
v  -0.1724 -0.2187 -0.9839
v  -0.1724 0.4864 0.2137
v  -0.1724 0.4864 -0.3851
v  -0.1599 0.0074 0.9089
v  -0.1724 0.2336 0.8124
v  0.3812 -0.4715 -0.3851
v  0.3812 -0.4715 0.2137
v  0.4511 0.0074 -1.0767
v  0.3812 -0.2187 -0.9839
v  0.3812 0.4864 0.2137
v  0.3812 0.4864 -0.3851
v  0.4511 0.0074 0.9089
v  0.3812 0.2336 0.8124
v  0.9348 -0.4715 -0.3215
v  0.9348 -0.4715 0.1500
v  1.0620 0.0074 -0.8657
v  0.9348 -0.2187 -0.7930
v  0.9348 0.4864 0.1500
v  0.9348 0.4864 -0.3215
v  1.0620 0.0074 0.6979
v  0.9348 0.2336 0.6216
v  1.7650 -0.4715 -0.2615
v  1.7650 -0.4715 0.0901
v  1.9782 0.0074 -0.6669
v  1.7650 -0.2187 -0.6132
v  1.7650 0.4864 0.0901
v  1.7650 0.4864 -0.2615
v  1.9782 0.0074 0.4991
v  1.7650 0.2336 0.4417
v  2.2969 0.0074 -0.4279
v  2.0538 -0.1720 -0.3969
v  2.0538 0.3875 -0.1312
v  2.0538 0.3875 -0.2640
v  2.2969 0.0074 0.0127
v  2.0538 0.1869 0.0017
v  -1.8332 0.1661 -0.8272
v  -2.2168 0.1661 -0.8272
v  -2.2168 0.1661 0.6558
v  -1.5564 -0.2187 0.4124
v  -1.5564 0.2336 -0.5838
v  -1.2796 -0.2187 0.4497
v  -1.2796 0.2336 -0.6211
v  -1.0028 -0.2187 0.6242
v  -1.0028 0.2336 -0.7956
v  -0.7260 -0.2187 0.8124
v  -0.7260 0.2336 -0.9839
v  -0.1724 -0.2187 0.8124
v  -0.1724 0.2336 -0.9839
v  0.3812 -0.2187 0.8124
v  0.3812 0.2336 -0.9839
v  0.9348 -0.2187 0.6216
v  0.9348 0.2336 -0.7930
v  1.7650 -0.2187 0.4417
v  1.7650 0.2336 -0.6132
v  2.0538 -0.1720 0.0017
v  2.0538 0.1869 -0.3969
# 114 vertices

vn -0.3675 -0.9174 0.1529
vn -0.3678 -0.9172 -0.1531
vn -0.2122 -0.9595 -0.1856
vn -0.2122 -0.9595 0.1856
vn -0.2122 0.9595 0.1856
vn -0.2122 0.9595 -0.1856
vn -0.3678 0.9172 -0.1531
vn -0.3675 0.9174 0.1529
vn -0.1988 -0.7742 0.6010
vn 0.4276 -0.4342 0.7929
vn 0.1829 0.0000 0.9831
vn -0.7045 0.0000 0.7098
vn 0.5786 -0.7621 0.2906
vn 0.4627 -0.7799 -0.4215
vn 0.9486 -0.0000 -0.3165
vn 0.9507 -0.0000 0.3101
vn 0.4295 -0.4256 -0.7965
vn -0.2001 -0.7686 -0.6076
vn -0.7068 0.0000 -0.7075
vn 0.1824 0.0000 -0.9832
vn -0.9933 -0.0000 0.1152
vn -0.9934 0.0000 -0.1147
vn -0.1997 -0.9396 -0.2781
vn -0.1997 -0.9396 0.2781
vn 0.4262 0.0000 -0.9047
vn 0.1518 -0.5672 -0.8095
vn -0.1997 0.9396 0.2781
vn -0.1997 0.9396 -0.2781
vn 0.4276 0.4341 0.7929
vn 0.4276 0.0000 0.9040
vn 0.1508 0.5729 0.8056
vn -0.0351 -0.9569 -0.2884
vn -0.0351 -0.9569 0.2884
vn -0.2990 0.0000 -0.9542
vn -0.2983 -0.6200 -0.7257
vn -0.0351 0.9569 0.2884
vn -0.0351 0.9569 -0.2884
vn -0.2998 -0.0000 0.9540
vn -0.2966 0.6247 0.7224
vn -0.0523 -0.9692 -0.2407
vn -0.0523 -0.9692 0.2407
vn -0.5477 0.0000 -0.8366
vn -0.4162 -0.6542 -0.6316
vn -0.0523 0.9692 0.2407
vn -0.0523 0.9692 -0.2407
vn -0.5478 0.0000 0.8366
vn -0.4141 0.6583 0.6286
vn -0.0254 -0.9770 -0.2117
vn -0.0254 -0.9770 0.2117
vn -0.3046 0.0000 -0.9525
vn -0.2018 -0.6786 -0.7063
vn -0.0254 0.9770 0.2117
vn -0.0254 0.9770 -0.2117
vn -0.3038 -0.0000 0.9527
vn -0.2010 0.6835 0.7017
vn 0.0000 -0.9801 -0.1984
vn 0.0000 -0.9801 0.1984
vn 0.0000 0.0000 -1.0000
vn 0.0000 -0.7035 -0.7107
vn 0.0000 0.9801 0.1984
vn 0.0000 0.9801 -0.1984
vn 0.0000 -0.0000 1.0000
vn 0.0000 0.7084 0.7058
vn 0.0122 -0.9786 -0.2053
vn 0.0122 -0.9786 0.2053
vn 0.1862 0.0000 -0.9825
vn 0.1037 -0.6952 -0.7113
vn 0.0122 0.9786 0.2053
vn 0.0122 0.9786 -0.2053
vn 0.1858 -0.0000 0.9826
vn 0.1032 0.7001 0.7066
vn 0.0222 -0.9704 -0.2403
vn 0.0222 -0.9704 0.2403
vn 0.2551 0.0000 -0.9669
vn 0.2045 -0.6871 -0.6972
vn 0.0222 0.9704 0.2403
vn 0.0222 0.9704 -0.2403
vn 0.2553 -0.0000 0.9669
vn 0.2032 0.6916 0.6931
vn 0.1626 -0.9439 -0.2873
vn 0.2689 -0.9076 0.3224
vn 0.4790 -0.0000 -0.8778
vn 0.2988 -0.6368 -0.7108
vn 0.2689 0.9076 0.3224
vn 0.1626 0.9439 -0.2873
vn 0.6411 -0.0000 0.7675
vn 0.3685 0.6482 0.6664
vn 0.7013 0.0000 -0.7128
vn 0.4535 -0.5947 -0.6638
vn 0.5786 0.7621 0.2906
vn 0.4627 0.7799 -0.4215
vn 0.7801 0.0000 0.6257
vn 0.5998 0.5762 0.5551
vn 0.4295 0.4256 -0.7965
vn -0.2001 0.7686 -0.6076
vn -0.1988 0.7741 0.6010
vn 0.1508 -0.5729 0.8056
vn 0.1518 0.5672 -0.8095
vn -0.2966 -0.6247 0.7224
vn -0.2983 0.6200 -0.7257
vn -0.4141 -0.6583 0.6286
vn -0.4162 0.6542 -0.6316
vn -0.2010 -0.6835 0.7017
vn -0.2018 0.6786 -0.7063
vn 0.0000 -0.7084 0.7058
vn 0.0000 0.7035 -0.7107
vn 0.1032 -0.7001 0.7066
vn 0.1037 0.6952 -0.7113
vn 0.2032 -0.6916 0.6931
vn 0.2045 0.6871 -0.6972
vn 0.3685 -0.6482 0.6664
vn 0.2988 0.6368 -0.7108
vn 0.5998 -0.5762 0.5551
vn 0.4535 0.5947 -0.6638
# 114 vertex normals

vt 1.0000 0.3333 0.0000
vt 1.0000 0.6667 0.0000
vt 0.0000 0.6667 0.0000
vt 0.0000 0.3333 0.0000
vt 0.0000 0.0000 0.0000
vt 1.0000 0.0000 0.0000
vt 1.0000 0.5000 0.0000
vt 0.0000 0.5000 0.0000
vt 0.3333 0.0000 0.0000
vt 0.6667 0.0000 0.0000
vt 0.6667 0.5000 0.0000
vt 0.3333 0.5000 0.0000
vt 0.6667 1.0000 0.0000
vt 0.3333 1.0000 0.0000
vt 0.0000 1.0000 0.0000
vt 1.0000 1.0000 0.0000
# 16 texture coords

o Box002
g Box002
s 2
f 1/1/1 2/2/2 3/3/3 4/4/4 
s 4
f 5/1/5 6/2/6 7/3/7 8/4/8 
s 8
f 9/5/9 10/6/10 11/7/11 12/8/12 
s 16
f 13/9/13 14/10/14 15/11/15 16/12/16 
s 32
f 17/5/17 18/6/18 19/7/19 20/8/20 
s 64
f 2/9/2 1/10/1 21/11/21 22/12/22 
s off
f 4/9/4 3/10/3 23/10/23 24/9/24 
f 17/6/17 20/7/20 25/7/25 26/6/26 
f 6/13/6 5/14/5 27/14/27 28/13/28 
f 29/15/29 11/8/11 30/8/30 31/15/31 
f 24/9/24 23/10/23 32/10/32 33/9/33 
f 26/6/26 25/7/25 34/7/34 35/6/35 
f 28/13/28 27/14/27 36/14/36 37/13/37 
f 31/15/31 30/8/30 38/8/38 39/15/39 
f 33/9/33 32/10/32 40/10/40 41/9/41 
f 35/6/35 34/7/34 42/7/42 43/6/43 
f 37/13/37 36/14/36 44/14/44 45/13/45 
f 39/15/39 38/8/38 46/8/46 47/15/47 
f 41/9/41 40/10/40 48/10/48 49/9/49 
f 43/6/43 42/7/42 50/7/50 51/6/51 
f 45/13/45 44/14/44 52/14/52 53/13/53 
f 47/15/47 46/8/46 54/8/54 55/15/55 
f 49/9/49 48/10/48 56/10/56 57/9/57 
f 51/6/51 50/7/50 58/7/58 59/6/59 
f 53/13/53 52/14/52 60/14/60 61/13/61 
f 55/15/55 54/8/54 62/8/62 63/15/63 
f 57/9/57 56/10/56 64/10/64 65/9/65 
f 59/6/59 58/7/58 66/7/66 67/6/67 
f 61/13/61 60/14/60 68/14/68 69/13/69 
f 63/15/63 62/8/62 70/8/70 71/15/71 
f 65/9/65 64/10/64 72/10/72 73/9/73 
f 67/6/67 66/7/66 74/7/74 75/6/75 
f 69/13/69 68/14/68 76/14/76 77/13/77 
f 71/15/71 70/8/70 78/8/78 79/15/79 
f 73/9/73 72/10/72 80/10/80 81/9/81 
f 75/6/75 74/7/74 82/7/82 83/6/83 
f 77/13/77 76/14/76 84/14/84 85/13/85 
f 79/15/79 78/8/78 86/8/86 87/15/87 
f 81/9/81 80/10/80 14/10/14 13/9/13 
f 83/6/83 82/7/82 88/7/88 89/6/89 
f 85/13/85 84/14/84 90/14/90 91/13/91 
f 87/15/87 86/8/86 92/8/92 93/15/93 
s 2
f 2/2/2 18/16/18 17/15/17 3/3/3 
f 4/4/4 10/5/10 9/6/9 1/1/1 
s 4
f 6/2/6 94/16/94 95/15/95 7/3/7 
f 8/4/8 96/5/96 29/6/29 5/1/5 
s 16
f 14/10/14 89/6/89 88/7/88 15/11/15 
f 90/14/90 93/15/93 92/8/92 16/12/16 
s 64
f 1/10/1 9/6/9 12/7/12 21/11/21 
f 7/14/7 95/15/95 19/8/19 22/12/22 
s off
f 3/10/3 17/6/17 26/6/26 23/10/23 
f 24/9/24 97/5/97 10/5/10 4/9/4 
f 5/14/5 29/15/29 31/15/31 27/14/27 
f 28/13/28 98/16/98 94/16/94 6/13/6 
f 23/10/23 26/6/26 35/6/35 32/10/32 
f 33/9/33 99/5/99 97/5/97 24/9/24 
f 27/14/27 31/15/31 39/15/39 36/14/36 
f 37/13/37 100/16/100 98/16/98 28/13/28 
f 32/10/32 35/6/35 43/6/43 40/10/40 
f 41/9/41 101/5/101 99/5/99 33/9/33 
f 36/14/36 39/15/39 47/15/47 44/14/44 
f 45/13/45 102/16/102 100/16/100 37/13/37 
f 40/10/40 43/6/43 51/6/51 48/10/48 
f 49/9/49 103/5/103 101/5/101 41/9/41 
f 44/14/44 47/15/47 55/15/55 52/14/52 
f 53/13/53 104/16/104 102/16/102 45/13/45 
f 48/10/48 51/6/51 59/6/59 56/10/56 
f 57/9/57 105/5/105 103/5/103 49/9/49 
f 52/14/52 55/15/55 63/15/63 60/14/60 
f 61/13/61 106/16/106 104/16/104 53/13/53 
f 56/10/56 59/6/59 67/6/67 64/10/64 
f 65/9/65 107/5/107 105/5/105 57/9/57 
f 60/14/60 63/15/63 71/15/71 68/14/68 
f 69/13/69 108/16/108 106/16/106 61/13/61 
f 64/10/64 67/6/67 75/6/75 72/10/72 
f 73/9/73 109/5/109 107/5/107 65/9/65 
f 68/14/68 71/15/71 79/15/79 76/14/76 
f 77/13/77 110/16/110 108/16/108 69/13/69 
f 72/10/72 75/6/75 83/6/83 80/10/80 
f 81/9/81 111/5/111 109/5/109 73/9/73 
f 76/14/76 79/15/79 87/15/87 84/14/84 
f 85/13/85 112/16/112 110/16/110 77/13/77 
f 80/10/80 83/6/83 89/6/89 14/10/14 
f 13/9/13 113/5/113 111/5/111 81/9/81 
f 84/14/84 87/15/87 93/15/93 90/14/90 
f 91/13/91 114/16/114 112/16/112 85/13/85 
s 8
f 11/7/11 29/16/29 96/15/96 12/8/12 
s 16
f 15/11/15 91/13/91 90/14/90 16/12/16 
s 32
f 19/7/19 95/16/95 94/15/94 20/8/20 
s 64
f 21/11/21 8/13/8 7/14/7 22/12/22 
s off
f 20/7/20 94/16/94 98/16/98 25/7/25 
f 11/8/11 10/5/10 97/5/97 30/8/30 
f 25/7/25 98/16/98 100/16/100 34/7/34 
f 30/8/30 97/5/97 99/5/99 38/8/38 
f 34/7/34 100/16/100 102/16/102 42/7/42 
f 38/8/38 99/5/99 101/5/101 46/8/46 
f 42/7/42 102/16/102 104/16/104 50/7/50 
f 46/8/46 101/5/101 103/5/103 54/8/54 
f 50/7/50 104/16/104 106/16/106 58/7/58 
f 54/8/54 103/5/103 105/5/105 62/8/62 
f 58/7/58 106/16/106 108/16/108 66/7/66 
f 62/8/62 105/5/105 107/5/107 70/8/70 
f 66/7/66 108/16/108 110/16/110 74/7/74 
f 70/8/70 107/5/107 109/5/109 78/8/78 
f 74/7/74 110/16/110 112/16/112 82/7/82 
f 78/8/78 109/5/109 111/5/111 86/8/86 
f 82/7/82 112/16/112 114/16/114 88/7/88 
f 86/8/86 111/5/111 113/5/113 92/8/92 
s 16
f 88/7/88 114/16/114 91/13/91 15/11/15 
f 92/8/92 113/5/113 13/9/13 16/12/16 
s 64
f 12/7/12 96/16/96 8/13/8 21/11/21 
f 19/8/19 18/5/18 2/9/2 22/12/22 
# 112 polygons

